Patient4_TMGait_0pt5_01_right_07_EMG.mot
version=1
nRows=27
nColumns=33
inDegrees=no
endheader
time	1LAddLong	2LGlutMax	3LGlutMed	4LIliopsoas	5LSemiMemb	6LBicFemLong	7LRecFem	8LVastMed	9LVastLat	10LGasMed	11LTibAnt	12lTibPost	13LPeroneusLong	14LSol	15LExtDigLong	16LFlexDigLong	17RAddLong	18RGlutMax	19RGlutMed	20RIliopsoas	21RSemiMemb	22RBicFemLong	23RRecFem	24RVastMed	25RVastLat	26RGasMed	27RTibAnt	28RTibPost	29RPeroneusLong	30RSol	31RExtDigLong	32RFlexDigLong
9.185	0.003967	0.006714	0.22537	0.013123	0.012207	-0.000153	-0.027008	0.01297	-0.005493	-0.027008	0.072632	0.01297	-0.097809	0.049438	0.021973	0.017853	0.035858	-0.47669	0.45319	0.058899	0.50323	0.041656	0.12054	0.010071	0.020905	-0.20386	0.055542	0.06485	-0.522	0.23041	-0.003204	0.000916
9.186	0.003815	0.046082	0.24735	0.018616	0.011902	-0.008087	-0.027313	0.005646	0.013275	-0.011749	0.076294	-0.033264	-0.10666	0.020447	-0.02533	0.041809	0.061951	-0.50964	0.72159	-0.00412	-0.17075	0.29327	0.15503	-0.15213	0.056305	-0.20935	0.009155	-0.094452	-0.19302	-0.06012	-0.002899	0.007477
9.187	0.002747	0.025635	0.26215	0.006104	0.013885	-0.000153	0.007629	0.012512	0.02533	-0.020142	0.056152	-0.007477	-0.097656	-0.033417	-0.1239	0.007019	0.093079	-0.46234	0.39673	0.059814	-0.37766	0.19379	0.2005	-0.336	0.10468	-0.18875	-0.052948	-0.10956	0.80215	-0.046692	-0.003357	0.00946
9.188	0.004272	-0.003204	0.26306	0.006866	0.010223	-0.009003	-0.005646	0.01236	0.0383	-0.007935	0.005646	-0.024567	-0.08728	-0.041504	-0.23193	0.045776	0.038605	-0.57266	-0.37338	-0.030365	-0.64468	-0.09491	0.12848	-0.25024	0.13306	-0.034332	-0.024719	0.024872	0.54886	-0.015411	-0.003815	0.008087
9.189	-0.000458	0.01358	0.26215	0.014801	0.010529	-0.010834	-0.006104	0.016327	0.034485	-0.00412	-0.068512	-0.026703	-0.097961	-0.083466	-0.289	0.06134	-0.10681	-0.87204	-1.1398	-0.038757	-0.5191	-0.31494	-0.11002	-0.029449	0.13138	0.052032	-0.001373	0.1236	-0.010071	0.11719	-0.004272	-0.002136
9.19	0.003967	-0.009155	0.28534	0.005035	0.006866	0.002136	-0.001373	0.003204	0.04364	-0.013123	-0.10452	0.11108	-0.083466	-0.084534	-0.20462	0.059967	-0.10529	-1.3895	-1.6998	0.002747	0.061951	-0.38147	-0.23743	0.02243	0.057678	0.14923	0.001373	0.090179	-0.14542	0.13153	-0.002899	0.005341
9.191	0.010986	-0.002136	0.27008	0.006256	0.006409	0.001221	0.000763	0.016479	0.051727	0.003052	-0.10223	-0.032196	-0.081787	-0.037842	-0.082703	0.019226	-0.093384	-1.6602	-1.8037	0.065918	0.045013	-0.35217	-0.064392	0.22842	-0.016785	0.27679	0.037079	-0.039825	-0.10117	0.46387	-0.002441	-0.002136
9.192	0.01358	-0.015259	0.27191	0.024872	0.003662	-0.014191	0.009613	0.010529	0.056915	0.005188	-0.091248	-0.052948	-0.11383	-0.026245	-0.007172	0.035706	-0.080872	-1.6838	-1.3014	0.071564	0.18723	-0.38086	0.083771	0.20599	-0.070343	0.2214	0.054321	-0.44678	-0.12726	0.48111	-0.003052	-0.000458
9.193	0.013428	-0.020294	0.2655	0.035095	0.002594	0.00946	0.008087	0.010376	0.084229	0.007324	-0.07782	-0.011139	-0.15869	-0.03067	0.27756	0.031433	-0.056152	-1.6245	-1.7615	0.091248	0.38773	-0.16327	0.27268	0.071106	-0.13062	0.12924	0.052338	0.089417	-0.030975	0.022583	-0.005493	0.01358
9.194	0.009766	-0.044556	0.26032	0.021057	0.00946	-0.011597	-0.005188	0.005951	0.10712	0.000305	0.029755	-0.13077	-0.15823	0.037079	0.78339	0.033264	-0.025635	-1.5927	-1.0173	-0.001831	0.26489	0.038147	0.38711	-0.1149	-0.1622	0.091858	0.045471	0.19211	0.14618	0.38773	-0.00946	0.014038
9.195	0.005188	-0.03006	0.27969	0.006714	0.002747	-0.010223	0.000305	0.007172	0.10986	-0.026245	0.23666	-0.015869	-0.12451	0.10727	0.34698	0.031891	-0.007935	-1.5776	-0.10651	-0.10864	0.11704	0.026093	0.41824	-0.23758	-0.12573	0.07019	0.02243	0.03006	-0.11169	0.66467	-0.005798	0.011749
9.196	0.003967	0.003967	0.27802	0.01236	0.010223	-0.032196	-0.023041	0.008087	0.12512	-0.097351	0.20706	-0.009155	0.022278	0.23254	0.76279	0.028076	-0.027161	-1.5491	-0.43045	-0.10025	0.000305	0.019379	0.21683	-0.42923	-0.085602	0.075378	0.04776	-0.07431	-0.46921	-0.064697	-0.002136	0.003815
9.197	0.010834	-0.02243	0.26535	0.007172	0.011597	-0.017548	-0.045319	0.011292	0.13534	-0.12985	0.39917	0.005493	0.13321	0.31921	-0.053101	0.026245	-0.030975	-1.2692	-1.0364	-0.046082	-0.038452	0.027161	-0.37506	-0.46402	-0.053253	0.02182	0.037384	-0.072479	-0.33997	-0.96268	-0.005341	0.012817
9.198	0.01297	0.002899	0.24124	0.013275	0.009308	-0.00824	-0.02121	0.004272	0.1326	-0.11734	0.49286	0.005035	0.06485	0.35217	0.09964	0.023499	-0.021973	-1.0806	-1.3377	-0.025024	0.067749	-0.057068	-0.47974	-0.18417	0.15656	-0.060272	-0.021667	-0.22919	-0.13931	-1.3391	-0.006561	0.014648
9.199	0.004578	0.081329	0.23377	0.028381	0.006866	-0.017853	-0.003357	0.00412	0.13763	-0.080872	0.090027	0.004425	-0.049286	0.3212	0.19119	0.041504	-0.004578	-0.86166	-0.21927	-0.063019	0.10376	-0.1831	-0.3978	0.12558	0.34378	-0.19516	-0.087128	-0.03891	0.26169	-0.76141	-0.004578	0.016632
9.2	0.009613	0.087128	0.20294	0.005035	0.012207	-0.016785	0.017242	-0.000153	0.13718	-0.074158	-0.095215	-0.029144	-0.1442	0.28976	-0.10407	0.037384	0.015106	-0.5954	1.1659	0.013733	0.15167	-0.13641	-0.35172	0.38132	0.43579	-0.034027	-0.11597	-0.31372	0.61645	-0.83405	0	0.002899
9.201	0.010986	0.084534	0.20416	0.012512	0.010986	-0.005798	0.021515	-0.002289	0.14923	-0.10025	-0.19333	0.052643	-0.1001	0.22171	-0.48202	0.053406	-0.009308	-0.47791	0.075989	0.065002	-0.037689	0.042114	-0.25253	0.52078	0.42725	0.036469	-0.037079	-0.15701	0.5188	-0.15091	-0.002899	-0.005798
9.202	0.00351	0.078278	0.20157	0.02121	0.001373	0.029144	0.038757	0.009003	0.15656	-0.097656	-0.11505	0.027618	-0.035858	0.005493	-0.3122	0.008698	-0.033264	-0.42511	-0.087128	0.11566	-0.1445	0.1358	-0.025024	0.5339	-0.063171	0.05722	-0.040131	0.31769	0.57739	0.3566	-0.004883	-0.002747
9.203	0.001526	0.077209	0.17914	0.026703	0.005341	0.042725	0.036774	-0.066986	0.16007	-0.09964	-0.16052	-0.001526	0.031433	-0.17151	-0.52673	0.04303	0.001373	-0.21469	0.91263	-0.060425	-0.066528	0.00412	-0.007935	0.30594	-0.34256	0.050964	0.002289	0.43808	0.25406	0.45822	-0.006409	-0.001984
9.204	-0.005798	0.073547	0.18265	0.023804	0.001526	0.037231	0.045319	-0.010529	0.17639	-0.082703	-0.12848	0.027313	0.029755	-0.16281	-0.35004	0.027313	0.023346	-0.055389	1.5932	-0.085297	-0.024872	-0.01236	0.072174	0.12894	-0.15747	-0.02243	0.074158	0.42206	0.083313	-0.12222	-0.003815	0.006714
9.205	-0.000153	0.056305	0.16007	0.012054	-0.00885	0.027313	0.063782	0.014191	0.19867	-0.056305	-0.13657	0.028229	0.013733	-0.21668	-0.74692	0.029144	0.027313	-0.021362	-0.35843	-0.056305	-0.046692	-0.037384	0.088654	0.13412	-0.068054	-0.083008	0.12604	0.17349	-0.090485	0.33707	-0.001526	0.018005
9.206	-0.005951	0.053253	0.15198	-0.020142	-0.013885	0.043945	0.025024	0.00473	0.20721	-0.05722	-0.18387	0.043793	-0.000916	-0.089417	-0.55145	0.032349	0.027924	0.1152	-0.58212	0.016785	-0.080261	-0.023346	0.14496	0.11459	-0.011902	-0.036469	0.20462	0.067749	-0.077972	0.27893	-0.005493	0.014496
9.207	-0.007172	0.011444	0.11276	-0.018158	-0.016174	0.028076	0.050049	0.004578	0.21286	-0.059357	-0.22736	0.036926	-0.010681	0.055237	1.0306	0.020294	0.024414	0.20294	-0.31693	0.072479	-0.10407	-0.11536	0.12772	0.054474	-0.015564	-0.002594	0.28397	-0.083618	-0.054321	-0.10529	-0.004883	0.003662
9.208	-0.007019	0.025787	0.12451	-0.018921	-0.007324	0.023651	0.0737	0.003967	0.22247	-0.074921	-0.16632	0.045471	0.011139	0.006256	-0.55878	0.031128	0.019379	0.23361	0.60501	0.06134	-0.11032	-0.37811	0.11154	0.015564	0.005341	-0.023804	0.21866	-0.11368	0.18509	-0.22064	-0.003204	0.007324
9.209	-0.007019	-0.011749	0.11017	-0.007324	0.007935	-0.013733	0.1059	0.003357	0.22614	-0.056305	-0.32806	0.036926	0.047302	-0.14099	-0.94544	0.01236	0.024719	-0.035706	0.46326	0.052032	-0.13901	-0.45197	0.26001	0.010529	-0.02182	-0.022583	0.11032	-0.14847	0.8461	0.27054	-0.005798	0.001068
9.21	-0.00885	-0.005188	0.09491	-0.009003	0.001373	-0.00061	0.15579	0.006409	0.23285	-0.003967	-0.3186	0.031433	0.046997	-0.27527	-1.0356	0.010223	0.033875	-0.27222	0.62302	0.032654	-0.16083	-0.29938	0.39536	-0.083313	-0.1033	-0.018921	-0.045471	-0.16052	0.83969	0.13214	-0.004272	0.005035
9.211	-0.003357	-0.044708	0.061493	-0.002899	0.006409	0.018616	0.14771	-0.001526	0.21805	0.023804	-0.15671	0.032043	-0.032043	-0.36957	-0.57968	-0.007782	0.019226	-0.32486	-0.088654	0.042725	-0.16068	-0.092773	0.46585	-0.15915	-0.10391	-0.066223	-0.4921	-0.40863	0.44311	-0.074005	-0.001526	0.00061
